<svg width="55" height="56" viewBox="0 0 55 56" fill="none" xmlns="http://www.w3.org/2000/svg">
<g clip-path="url(#clip0_135_507)">
<path d="M45.9326 8.81233C42.507 7.2413 38.8352 6.08009 34.9954 5.4198C34.9612 5.41313 34.9258 5.41743 34.8942 5.43211C34.8625 5.4468 34.836 5.47114 34.8186 5.50177C34.3484 6.34193 33.8245 7.43711 33.4573 8.30232C29.3849 7.68355 25.2447 7.68355 21.1723 8.30232C20.7634 7.34344 20.3022 6.40847 19.7909 5.50177C19.7736 5.47077 19.7474 5.44587 19.7158 5.43041C19.6842 5.41495 19.6487 5.40966 19.6141 5.41525C15.7766 6.07554 12.1047 7.23674 8.67694 8.81006C8.64745 8.82264 8.62245 8.84409 8.6053 8.87153C1.63778 19.2882 -0.272019 29.4476 0.666088 39.4795C0.668699 39.504 0.676198 39.5278 0.68813 39.5493C0.700063 39.5709 0.716178 39.5897 0.735495 39.6047C4.80225 42.6157 9.33818 44.9094 14.1533 46.3897C14.1869 46.4003 14.2228 46.4002 14.2564 46.3897C14.2899 46.3791 14.3195 46.3585 14.3414 46.3305C15.3776 44.9213 16.2958 43.4263 17.0863 41.8611C17.0973 41.8397 17.1036 41.8161 17.1049 41.792C17.1061 41.7679 17.1023 41.7438 17.0935 41.7214C17.0848 41.6989 17.0715 41.6786 17.0544 41.6619C17.0373 41.6451 17.0169 41.6323 16.9945 41.6243C15.5482 41.0704 14.1468 40.402 12.8033 39.6252C12.7791 39.6112 12.7588 39.5913 12.7441 39.5673C12.7293 39.5433 12.7207 39.516 12.7189 39.4878C12.7172 39.4596 12.7223 39.4313 12.7339 39.4057C12.7455 39.38 12.7632 39.3576 12.7854 39.3406C13.0675 39.1288 13.3496 38.908 13.6182 38.6871C13.6424 38.6672 13.6716 38.6546 13.7024 38.6506C13.7332 38.6466 13.7645 38.6513 13.7929 38.6643C22.5851 42.6807 32.1072 42.6807 40.7965 38.6643C40.8249 38.6506 40.8565 38.6452 40.8878 38.6488C40.9191 38.6524 40.9487 38.6649 40.9734 38.6848C41.242 38.908 41.5219 39.1288 41.8062 39.3406C41.8286 39.3572 41.8466 39.3793 41.8586 39.4048C41.8705 39.4303 41.8761 39.4583 41.8748 39.4865C41.8734 39.5147 41.8653 39.5422 41.8509 39.5664C41.8366 39.5905 41.8167 39.6108 41.7928 39.6252C40.4539 40.4084 39.0613 41.071 37.5993 41.622C37.5768 41.6303 37.5564 41.6433 37.5393 41.6603C37.5222 41.6773 37.5089 41.6978 37.5002 41.7204C37.4915 41.743 37.4877 41.7673 37.4889 41.7915C37.4902 41.8158 37.4965 41.8395 37.5075 41.8611C38.3135 43.4253 39.236 44.9143 40.2502 46.3283C40.2713 46.3573 40.3006 46.379 40.3343 46.3904C40.368 46.4018 40.4043 46.4024 40.4383 46.392C45.2617 44.9158 49.805 42.621 53.8762 39.6047C53.8961 39.5906 53.9128 39.5723 53.9251 39.5511C53.9375 39.5299 53.9452 39.5062 53.9479 39.4817C55.0673 27.8834 52.0717 17.806 46.002 8.87609C45.9871 8.84707 45.9625 8.82445 45.9326 8.81233ZM18.4006 33.3706C15.7542 33.3706 13.5712 30.9366 13.5712 27.9517C13.5712 24.9644 15.7116 22.5327 18.4006 22.5327C21.1097 22.5327 23.2725 24.9849 23.2299 27.9517C23.2299 30.9389 21.0895 33.3706 18.4006 33.3706ZM36.2559 33.3706C33.6073 33.3706 31.4266 30.9366 31.4266 27.9517C31.4266 24.9644 33.5648 22.5327 36.2559 22.5327C38.965 22.5327 41.1278 24.9849 41.0853 27.9517C41.0853 30.9389 38.9673 33.3706 36.2559 33.3706Z" fill="white"/>
</g>
<defs>
<clipPath id="clip0_135_507">
<rect width="53.7341" height="54.6448" fill="white" transform="translate(0.444458 0.859375)"/>
</clipPath>
</defs>
</svg>
