<svg width="55" height="56" viewBox="0 0 55 56" fill="none" xmlns="http://www.w3.org/2000/svg">
<path d="M48.0487 17.5742C48.0258 15.8497 47.7029 14.1424 47.0947 12.5287C46.5673 11.1674 45.7617 9.9312 44.7294 8.89894C43.6972 7.86668 42.4609 7.0611 41.0997 6.53366C39.5067 5.93566 37.8237 5.61231 36.1225 5.57738C33.9321 5.47947 33.2377 5.45215 27.6776 5.45215C22.1175 5.45215 21.4048 5.45215 19.2304 5.57738C17.53 5.61256 15.8478 5.93591 14.2555 6.53366C12.894 7.06073 11.6576 7.86618 10.6253 8.89849C9.59299 9.93079 8.78754 11.1672 8.26047 12.5287C7.66127 14.1205 7.33862 15.803 7.30646 17.5036C7.20855 19.6962 7.17896 20.3907 7.17896 25.9508C7.17896 31.5109 7.17896 32.2213 7.30646 34.398C7.34061 36.1011 7.66165 37.7814 8.26047 39.3775C8.78842 40.7385 9.59447 41.9744 10.6271 43.0063C11.6598 44.0381 12.8963 44.8433 14.2577 45.3702C15.8457 45.9922 17.5282 46.3387 19.2327 46.3948C21.4253 46.4927 22.1198 46.5223 27.6799 46.5223C33.24 46.5223 33.9526 46.5223 36.127 46.3948C37.8282 46.3613 39.5113 46.0387 41.1043 45.4408C42.4651 44.9127 43.7011 44.1069 44.7332 43.0747C45.7654 42.0426 46.5712 40.8066 47.0993 39.4458C47.6981 37.852 48.0191 36.1716 48.0533 34.4663C48.1512 32.2759 48.1808 31.5815 48.1808 26.0191C48.1762 20.459 48.1762 19.7532 48.0487 17.5742ZM27.6639 36.4654C21.8488 36.4654 17.138 31.7545 17.138 25.9394C17.138 20.1243 21.8488 15.4134 27.6639 15.4134C30.4556 15.4134 33.1329 16.5224 35.1069 18.4964C37.0809 20.4704 38.1899 23.1477 38.1899 25.9394C38.1899 28.7311 37.0809 31.4084 35.1069 33.3824C33.1329 35.3564 30.4556 36.4654 27.6639 36.4654ZM38.6088 17.4786C38.2864 17.4789 37.9671 17.4156 37.6692 17.2923C37.3713 17.1691 37.1006 16.9883 36.8726 16.7603C36.6446 16.5324 36.4638 16.2617 36.3406 15.9637C36.2173 15.6658 36.1541 15.3465 36.1544 15.0241C36.1544 14.7019 36.2178 14.3829 36.3411 14.0853C36.4644 13.7876 36.6451 13.5171 36.8729 13.2893C37.1007 13.0615 37.3712 12.8808 37.6688 12.7575C37.9665 12.6342 38.2855 12.5708 38.6077 12.5708C38.9299 12.5708 39.2489 12.6342 39.5465 12.7575C39.8442 12.8808 40.1146 13.0615 40.3425 13.2893C40.5703 13.5171 40.751 13.7876 40.8743 14.0853C40.9976 14.3829 41.061 14.7019 41.061 15.0241C41.061 16.3811 39.9636 17.4786 38.6088 17.4786Z" fill="white"/>
<path d="M27.664 32.7881C31.4402 32.7881 34.5014 29.7269 34.5014 25.9507C34.5014 22.1745 31.4402 19.1133 27.664 19.1133C23.8878 19.1133 20.8266 22.1745 20.8266 25.9507C20.8266 29.7269 23.8878 32.7881 27.664 32.7881Z" fill="white"/>
</svg>
