<svg width="49" height="40" viewBox="0 0 49 40" fill="none" xmlns="http://www.w3.org/2000/svg">
<path d="M48.2563 5.28513C46.5167 6.05596 44.6479 6.5768 42.6834 6.81221C44.7104 5.59928 46.227 3.69027 46.95 1.44138C45.0455 2.57261 42.9612 3.36887 40.7875 3.79555C39.3258 2.23485 37.3897 1.20039 35.2799 0.852784C33.17 0.505175 31.0044 0.863862 29.1193 1.87316C27.2341 2.88245 25.735 4.48588 24.8545 6.43451C23.974 8.38314 23.7616 10.5679 24.25 12.6497C20.391 12.456 16.6159 11.4529 13.1697 9.70577C9.7234 7.95859 6.68303 5.5063 4.24586 2.50805C3.41252 3.94555 2.93336 5.61221 2.93336 7.38721C2.93243 8.98512 3.32592 10.5586 4.07894 11.9679C4.83195 13.3773 5.92119 14.579 7.25002 15.4664C5.70893 15.4173 4.20184 15.0009 2.85419 14.2518V14.3768C2.85403 16.6179 3.62926 18.7901 5.04832 20.5247C6.46738 22.2593 8.44288 23.4496 10.6396 23.8935C9.20999 24.2804 7.71114 24.3374 6.25627 24.0601C6.87606 25.9885 8.08335 27.6748 9.70912 28.8829C11.3349 30.091 13.2978 30.7605 15.3229 30.7976C11.8851 33.4964 7.63937 34.9603 3.26877 34.9539C2.49457 34.9541 1.72102 34.9089 0.952106 34.8185C5.38851 37.6709 10.5528 39.1848 15.8271 39.1789C33.6813 39.1789 43.4417 24.3914 43.4417 11.5664C43.4417 11.1497 43.4313 10.7289 43.4125 10.3122C45.311 8.93924 46.9498 7.23908 48.2521 5.29138L48.2563 5.28513Z" fill="#94A4FF"/>
</svg>
