<svg width="55" height="55" viewBox="0 0 55 55" fill="none" xmlns="http://www.w3.org/2000/svg">
<g clip-path="url(#clip0_135_505)">
<path d="M53.29 11.7859C51.4205 12.6143 49.4122 13.1741 47.3008 13.4271C49.4793 12.1236 51.1091 10.072 51.8862 7.65514C49.8394 8.87085 47.5994 9.72658 45.2634 10.1851C43.6926 8.50786 41.6119 7.39615 39.3445 7.02259C37.077 6.64902 34.7497 7.03449 32.7238 8.11916C30.6979 9.20383 29.0867 10.927 28.1405 13.0212C27.1943 15.1153 26.9659 17.4633 27.4909 19.7005C23.3437 19.4923 19.2867 18.4144 15.583 16.5367C11.8794 14.6591 8.61197 12.0236 5.99279 8.80146C5.09723 10.3463 4.58228 12.1375 4.58228 14.045C4.58128 15.7623 5.00416 17.4532 5.81341 18.9678C6.62266 20.4824 7.79325 21.7738 9.22132 22.7275C7.56513 22.6748 5.94549 22.2273 4.4972 21.4223V21.5566C4.49703 23.9651 5.33015 26.2995 6.85519 28.1636C8.38023 30.0278 10.5033 31.3069 12.864 31.784C11.3277 32.1998 9.71687 32.261 8.15335 31.9631C8.81942 34.0355 10.1169 35.8477 11.8641 37.146C13.6113 38.4444 15.7207 39.1639 17.8971 39.2038C14.2025 42.1041 9.63974 43.6773 4.94274 43.6704C4.11072 43.6706 3.2794 43.622 2.45306 43.5249C7.22079 46.5903 12.7708 48.2172 18.4389 48.2109C37.6265 48.2109 48.1158 32.3191 48.1158 18.5363C48.1158 18.0885 48.1046 17.6362 48.0845 17.1885C50.1248 15.713 51.886 13.8858 53.2855 11.7927L53.29 11.7859Z" fill="white"/>
</g>
<defs>
<clipPath id="clip0_135_505">
<rect width="53.7341" height="53.7341" fill="white" transform="translate(0.355164 0.732422)"/>
</clipPath>
</defs>
</svg>
